<svg width="220" height="180" viewBox="0 0 220 180" fill="none" xmlns="http://www.w3.org/2000/svg" role="img" aria-label="No projects yet">
  <ellipse cx="110" cy="150" rx="82" ry="12" fill="#10B981" fill-opacity="0.12"/>
  <rect x="66" y="52" width="88" height="86" rx="12" fill="#D1FAE5"/>
  <rect x="66" y="52" width="88" height="86" rx="12" stroke="#10B981" stroke-opacity="0.4" stroke-width="2"/>
  <path d="M110 70c-9 4-14 10-14 18 0 8 6 15 14 15-4-6-4-12-1-18 3-6 2-11 1-15Z" fill="#34D399"/>
  <path d="M110 70c9 4 14 10 14 18 0 8-6 15-14 15 4-6 4-12 1-18-3-6-2-11-1-15Z" fill="#059669"/>
  <circle cx="110" cy="93" r="3" fill="#F59E0B"/>
  <rect x="82" y="120" width="56" height="7" rx="3.5" fill="#10B981" fill-opacity="0.35"/>
</svg>
