<svg width="184" height="40" viewBox="0 0 184 40" fill="none" xmlns="http://www.w3.org/2000/svg" role="img" aria-label="TerraLend">
  <defs>
    <linearGradient id="tlw" x1="0" y1="0" x2="40" y2="40" gradientUnits="userSpaceOnUse">
      <stop stop-color="#34D399"/>
      <stop offset="0.55" stop-color="#0D9488"/>
      <stop offset="1" stop-color="#047857"/>
    </linearGradient>
  </defs>
  <rect width="40" height="40" rx="11" fill="url(#tlw)"/>
  <path d="M20 9c-5.8 2.7-9.2 6.7-9.2 12.2C10.8 26.6 14.7 31 20 31c-2.5-3.5-2.7-7.8-.7-11.8C21 15.3 20.7 11.6 20 9Z" fill="#ECFDF5"/>
  <path d="M20 9c5.8 2.7 9.2 6.7 9.2 12.2C29.2 26.6 25.3 31 20 31c2.5-3.5 2.7-7.8.7-11.8C19 15.3 19.3 11.6 20 9Z" fill="#A7F3D0" fill-opacity="0.9"/>
  <circle cx="20" cy="21.5" r="2" fill="#F59E0B"/>
  <text x="52" y="26.5" font-family="Sora, sans-serif" font-size="20" font-weight="700" fill="#0F172A">Terra<tspan fill="#059669">Lend</tspan></text>
</svg>
