<svg width="1200" height="630" viewBox="0 0 1200 630" fill="none" xmlns="http://www.w3.org/2000/svg">
  <rect width="1200" height="630" fill="#04110D"/>
  <circle cx="180" cy="120" r="360" fill="#0D9488" fill-opacity="0.25"/>
  <circle cx="1050" cy="560" r="320" fill="#F59E0B" fill-opacity="0.14"/>
  <g transform="translate(96,232)">
    <rect width="88" height="88" rx="24" fill="#10B981"/>
    <path d="M44 20c-13 6-20 15-20 27 0 12 9 22 20 22-6-8-6-17-1.5-26C46 55 45 46 44 20Z" fill="#ECFDF5"/>
    <path d="M44 20c13 6 20 15 20 27 0 12-9 22-20 22 6-8 6-17 1.5-26C42 55 43 46 44 20Z" fill="#A7F3D0"/>
    <circle cx="44" cy="47" r="4.5" fill="#F59E0B"/>
  </g>
  <text x="212" y="300" font-family="Sora, sans-serif" font-size="60" font-weight="800" fill="#F8FAFC">TerraLend</text>
  <text x="98" y="410" font-family="Sora, sans-serif" font-size="52" font-weight="700" fill="#ECFDF5">Fund the projects</text>
  <text x="98" y="474" font-family="Sora, sans-serif" font-size="52" font-weight="700" fill="#34D399">regenerating our planet.</text>
  <text x="98" y="548" font-family="Sora, sans-serif" font-size="28" font-weight="500" fill="#94A3B8">Decentralized crowdlending on Linea · Grants &amp; Green Loans</text>
</svg>
